{
    "asset" : {
        "generator" : "Khronos glTF Blender I/O v1.8.19",
        "version" : "2.0"
    },
    "scene" : 0,
    "scenes" : [
        {
            "name" : "Scene",
            "nodes" : [
                0
            ]
        }
    ],
    "nodes" : [
        {
            "mesh" : 0,
            "name" : "gift"
        }
    ],
    "materials" : [
        {
            "doubleSided" : true,
            "name" : "Material",
            "pbrMetallicRoughness" : {
                "baseColorFactor" : [
                    0.9780156016349792,
                    0.8881549835205078,
                    1,
                    1
                ],
                "metallicFactor" : 0.5,
                "roughnessFactor" : 0.5
            }
        }
    ],
    "meshes" : [
        {
            "name" : "Mesh_0",
            "primitives" : [
                {
                    "attributes" : {
                        "POSITION" : 0,
                        "NORMAL" : 1,
                        "TEXCOORD_0" : 2
                    },
                    "indices" : 3,
                    "material" : 0
                }
            ]
        }
    ],
    "accessors" : [
        {
            "bufferView" : 0,
            "componentType" : 5126,
            "count" : 3728,
            "max" : [
                0.4975603222846985,
                0.17951653897762299,
                0.05322512611746788
            ],
            "min" : [
                -0.5104999542236328,
                -0.1895110309123993,
                0
            ],
            "type" : "VEC3"
        },
        {
            "bufferView" : 1,
            "componentType" : 5126,
            "count" : 3728,
            "type" : "VEC3"
        },
        {
            "bufferView" : 2,
            "componentType" : 5126,
            "count" : 3728,
            "type" : "VEC2"
        },
        {
            "bufferView" : 3,
            "componentType" : 5123,
            "count" : 11073,
            "type" : "SCALAR"
        }
    ],
    "bufferViews" : [
        {
            "buffer" : 0,
            "byteLength" : 44736,
            "byteOffset" : 0
        },
        {
            "buffer" : 0,
            "byteLength" : 44736,
            "byteOffset" : 44736
        },
        {
            "buffer" : 0,
            "byteLength" : 29824,
            "byteOffset" : 89472
        },
        {
            "buffer" : 0,
            "byteLength" : 22146,
            "byteOffset" : 119296
        }
    ],
    "buffers" : [
        {
            "byteLength" : 141444,
            "uri" : "gift3d.bin"
        }
    ]
}
